<svg viewBox="0 0 22 22" fill="none" xmlns="http://www.w3.org/2000/svg">
<path d="M21.873 4.59641C21.7471 4.41592 21.5445 4.30436 21.3243 4.29496L7.67753 3.70672C7.28598 3.68959 6.95878 3.99188 6.94204 4.38161C6.9254 4.77119 7.2272 5.10036 7.61688 5.1171L20.3398 5.66556L17.8382 13.4707H6.70582L4.69459 2.51971C4.65038 2.27969 4.4856 2.07946 4.25834 1.9903L0.96429 0.696207C0.601244 0.554071 0.191575 0.732394 0.0489956 1.095C-0.0933376 1.4578 0.0849359 1.86771 0.447785 2.01029L3.37672 3.16092L5.42344 14.3041C5.48513 14.6391 5.77708 14.8824 6.11782 14.8824H6.45734L5.68206 17.0359C5.61717 17.2163 5.64391 17.4166 5.75433 17.5733C5.86462 17.7301 6.04397 17.8233 6.23544 17.8233H6.77922C6.44227 18.1983 6.23544 18.6921 6.23544 19.2351C6.23544 20.4028 7.18559 21.3527 8.35306 21.3527C9.52053 21.3527 10.4707 20.4028 10.4707 19.2351C10.4707 18.6921 10.2638 18.1983 9.92695 17.8233H14.5439C14.2068 18.1983 14 18.6921 14 19.2351C14 20.4028 14.9499 21.3527 16.1176 21.3527C17.2854 21.3527 18.2352 20.4028 18.2352 19.2351C18.2352 18.6921 18.0285 18.1983 17.6916 17.8233H18.3529C18.6779 17.8233 18.9412 17.56 18.9412 17.2351C18.9412 16.9102 18.6778 16.6469 18.3529 16.6469H7.07241L7.70761 14.8822H18.3529C18.6598 14.8822 18.9315 14.6839 19.0249 14.3918L21.9661 5.21542C22.0336 5.00598 21.999 4.777 21.873 4.59641ZM8.35311 20.1765C7.83404 20.1765 7.41192 19.7544 7.41192 19.2353C7.41192 18.7162 7.83404 18.2941 8.35311 18.2941C8.87217 18.2941 9.29425 18.7162 9.29425 19.2353C9.29425 19.7544 8.87217 20.1765 8.35311 20.1765ZM16.1176 20.1765C15.5986 20.1765 15.1765 19.7544 15.1765 19.2353C15.1765 18.7162 15.5986 18.2941 16.1176 18.2941C16.6367 18.2941 17.0588 18.7162 17.0588 19.2353C17.0588 19.7544 16.6367 20.1765 16.1176 20.1765Z" fill="black"/>
</svg>
