<svg viewBox="0 0 18 18" fill="none" xmlns="http://www.w3.org/2000/svg">
<path d="M17.125 16.2412L12.405 11.5212C13.5393 10.1596 14.1049 8.41302 13.9842 6.64494C13.8635 4.87685 13.0658 3.22337 11.757 2.02844C10.4483 0.833522 8.72922 0.189167 6.95748 0.229425C5.18574 0.269682 3.49773 0.991451 2.2446 2.24458C0.991466 3.49772 0.269697 5.18573 0.22944 6.95747C0.189183 8.72921 0.833537 10.4483 2.02846 11.757C3.22338 13.0658 4.87687 13.8635 6.64495 13.9842C8.41303 14.1048 10.1596 13.5392 11.5213 12.405L16.2413 17.125L17.125 16.2412ZM1.50001 7.125C1.50001 6.01248 1.82991 4.92494 2.44799 3.99991C3.06608 3.07489 3.94458 2.35392 4.97242 1.92817C6.00025 1.50243 7.13125 1.39104 8.22239 1.60808C9.31354 1.82512 10.3158 2.36085 11.1025 3.14752C11.8892 3.93419 12.4249 4.93647 12.6419 6.02761C12.859 7.11876 12.7476 8.24976 12.3218 9.27759C11.8961 10.3054 11.1751 11.1839 10.2501 11.802C9.32507 12.4201 8.23753 12.75 7.12501 12.75C5.63368 12.7483 4.2039 12.1552 3.14936 11.1006C2.09483 10.0461 1.50167 8.61633 1.50001 7.125Z" fill="black"/>
</svg>
