<svg width="16" height="17" viewBox="0 0 16 17" fill="none" xmlns="http://www.w3.org/2000/svg">
<path d="M13.2536 4.96C13.2536 2.22 10.8922 0 7.97768 0C5.06319 0 2.7018 2.22 2.7018 4.96C2.7018 6.616 3.56552 8.084 4.893 8.984C4.88449 8.988 4.87811 8.99 4.87385 8.992C3.92292 9.37 3.06984 9.912 2.3359 10.604C1.60195 11.294 1.02756 12.098 0.62549 12.994C0.231927 13.87 0.021317 14.8 4.32705e-05 15.756C-0.0020841 15.846 0.0745013 15.92 0.170233 15.92H1.44453C1.53601 15.92 1.61259 15.85 1.61472 15.764C1.65727 14.22 2.31462 12.774 3.47829 11.678C4.68026 10.544 6.27579 9.92 7.97768 9.92C10.8922 9.92 13.2536 7.7 13.2536 4.96ZM7.97768 8.4C5.95668 8.4 4.31861 6.86 4.31861 4.96C4.31861 3.06 5.95668 1.52 7.97768 1.52C9.99869 1.52 11.6368 3.06 11.6368 4.96C11.6368 6.86 9.99869 8.4 7.97768 8.4ZM10.2114 12.82H15.8277C15.9213 12.82 15.9979 12.748 15.9979 12.66V11.54C15.9979 11.452 15.9213 11.38 15.8277 11.38H12.0729L13.077 10.178C13.1004 10.15 13.1132 10.114 13.1132 10.08C13.1132 9.992 13.0366 9.92 12.943 9.92H11.3985C11.2943 9.92 11.1964 9.966 11.1304 10.042L9.6732 11.784C9.5796 11.896 9.52854 12.036 9.52854 12.18C9.53067 12.534 9.83488 12.82 10.2114 12.82ZM15.3171 14.1H9.70086C9.60725 14.1 9.53067 14.172 9.53067 14.26V15.38C9.53067 15.468 9.60725 15.54 9.70086 15.54H13.4557L12.4515 16.742C12.4281 16.77 12.4154 16.806 12.4154 16.84C12.4154 16.928 12.492 17 12.5856 17H14.13C14.2343 17 14.3321 16.954 14.3981 16.878L15.8553 15.136C15.9489 15.024 16 14.884 16 14.74C15.9979 14.386 15.6937 14.1 15.3171 14.1Z" fill="black"/>
</svg>
